*********************************************************
 
Ghesh El Zawgeya 2012  Arabic DVDRip X264 ACC - alrmothe 

*********************************************************

TiTLE: Asad and 4Cats
YEAR:2012
GENRE : Comedy
elcinema URL : http://www.elcinema.com/work/wk2006532/
SIZE : 1.90 GB
Format : mp4 
Overall bit rate:2483 Kbps
Sub: No 
*********************************************************

Video
Format : AVC
Format/Info : Advanced Video Codec
Format profile : High@L3.0
Runtime: 1h 46min 2sec
bit rate: 1820 Kbps
Width: 718 pixels
Height: 360 pixels
Frame rate: 29.970 fps
Bit depth : 8 bits
Bits/(Pixel*Frame) : 0.295
Stream size : 1.75 GiB (92%)

Audio: Arabic
Format: ACC
Bit rate: 192 Kbps
Sampling rate: 48.0 KHz
Channel(s): 2 channels
Stream size : 150 MiB (8%)
Language : Arabic
*********************************************************

Screenshots 
http://img687.imageshack.us/img687/9593/vlcsnap2013021122h35m17.png 
http://img829.imageshack.us/img829/6638/vlcsnap2013021122h37m20.png 
http://img820.imageshack.us/img820/5363/vlcsnap2013021122h39m32.png 
http://img805.imageshack.us/img805/2368/gheshelzawgeya2012arabi.png